# 10310 ramp - owner-measured z=1mm+19mm*(1-|x|/75mm)^1.709 + 2mm toe bevels
v -0.092000 -0.055000 0.000000
v -0.090000 -0.055000 0.001000
v -0.088800 -0.055000 0.001000
v -0.087600 -0.055000 0.001000
v -0.086400 -0.055000 0.001000
v -0.085200 -0.055000 0.001000
v -0.084000 -0.055000 0.001000
v -0.082800 -0.055000 0.001000
v -0.081600 -0.055000 0.001000
v -0.080400 -0.055000 0.001000
v -0.079200 -0.055000 0.001000
v -0.078000 -0.055000 0.001000
v -0.076800 -0.055000 0.001000
v -0.075600 -0.055000 0.001000
v -0.074400 -0.055000 0.001005
v -0.073200 -0.055000 0.001032
v -0.072000 -0.055000 0.001078
v -0.070800 -0.055000 0.001138
v -0.069600 -0.055000 0.001212
v -0.068400 -0.055000 0.001298
v -0.067200 -0.055000 0.001397
v -0.066000 -0.055000 0.001507
v -0.064800 -0.055000 0.001628
v -0.063600 -0.055000 0.001759
v -0.062400 -0.055000 0.001901
v -0.061200 -0.055000 0.002053
v -0.060000 -0.055000 0.002214
v -0.058800 -0.055000 0.002385
v -0.057600 -0.055000 0.002564
v -0.056400 -0.055000 0.002753
v -0.055200 -0.055000 0.002951
v -0.054000 -0.055000 0.003157
v -0.052800 -0.055000 0.003372
v -0.051600 -0.055000 0.003596
v -0.050400 -0.055000 0.003827
v -0.049200 -0.055000 0.004067
v -0.048000 -0.055000 0.004315
v -0.046800 -0.055000 0.004571
v -0.045600 -0.055000 0.004834
v -0.044400 -0.055000 0.005106
v -0.043200 -0.055000 0.005385
v -0.042000 -0.055000 0.005671
v -0.040800 -0.055000 0.005965
v -0.039600 -0.055000 0.006266
v -0.038400 -0.055000 0.006575
v -0.037200 -0.055000 0.006891
v -0.036000 -0.055000 0.007214
v -0.034800 -0.055000 0.007545
v -0.033600 -0.055000 0.007882
v -0.032400 -0.055000 0.008227
v -0.031200 -0.055000 0.008578
v -0.030000 -0.055000 0.008936
v -0.028800 -0.055000 0.009301
v -0.027600 -0.055000 0.009673
v -0.026400 -0.055000 0.010052
v -0.025200 -0.055000 0.010437
v -0.024000 -0.055000 0.010829
v -0.022800 -0.055000 0.011228
v -0.021600 -0.055000 0.011633
v -0.020400 -0.055000 0.012044
v -0.019200 -0.055000 0.012462
v -0.018000 -0.055000 0.012887
v -0.016800 -0.055000 0.013318
v -0.015600 -0.055000 0.013755
v -0.014400 -0.055000 0.014198
v -0.013200 -0.055000 0.014648
v -0.012000 -0.055000 0.015104
v -0.010800 -0.055000 0.015566
v -0.009600 -0.055000 0.016035
v -0.008400 -0.055000 0.016509
v -0.007200 -0.055000 0.016990
v -0.006000 -0.055000 0.017477
v -0.004800 -0.055000 0.017969
v -0.003600 -0.055000 0.018468
v -0.002400 -0.055000 0.018973
v -0.001200 -0.055000 0.019483
v 0.000000 -0.055000 0.020000
v 0.001200 -0.055000 0.019483
v 0.002400 -0.055000 0.018973
v 0.003600 -0.055000 0.018468
v 0.004800 -0.055000 0.017969
v 0.006000 -0.055000 0.017477
v 0.007200 -0.055000 0.016990
v 0.008400 -0.055000 0.016509
v 0.009600 -0.055000 0.016035
v 0.010800 -0.055000 0.015566
v 0.012000 -0.055000 0.015104
v 0.013200 -0.055000 0.014648
v 0.014400 -0.055000 0.014198
v 0.015600 -0.055000 0.013755
v 0.016800 -0.055000 0.013318
v 0.018000 -0.055000 0.012887
v 0.019200 -0.055000 0.012462
v 0.020400 -0.055000 0.012044
v 0.021600 -0.055000 0.011633
v 0.022800 -0.055000 0.011228
v 0.024000 -0.055000 0.010829
v 0.025200 -0.055000 0.010437
v 0.026400 -0.055000 0.010052
v 0.027600 -0.055000 0.009673
v 0.028800 -0.055000 0.009301
v 0.030000 -0.055000 0.008936
v 0.031200 -0.055000 0.008578
v 0.032400 -0.055000 0.008227
v 0.033600 -0.055000 0.007882
v 0.034800 -0.055000 0.007545
v 0.036000 -0.055000 0.007214
v 0.037200 -0.055000 0.006891
v 0.038400 -0.055000 0.006575
v 0.039600 -0.055000 0.006266
v 0.040800 -0.055000 0.005965
v 0.042000 -0.055000 0.005671
v 0.043200 -0.055000 0.005385
v 0.044400 -0.055000 0.005106
v 0.045600 -0.055000 0.004834
v 0.046800 -0.055000 0.004571
v 0.048000 -0.055000 0.004315
v 0.049200 -0.055000 0.004067
v 0.050400 -0.055000 0.003827
v 0.051600 -0.055000 0.003596
v 0.052800 -0.055000 0.003372
v 0.054000 -0.055000 0.003157
v 0.055200 -0.055000 0.002951
v 0.056400 -0.055000 0.002753
v 0.057600 -0.055000 0.002564
v 0.058800 -0.055000 0.002385
v 0.060000 -0.055000 0.002214
v 0.061200 -0.055000 0.002053
v 0.062400 -0.055000 0.001901
v 0.063600 -0.055000 0.001759
v 0.064800 -0.055000 0.001628
v 0.066000 -0.055000 0.001507
v 0.067200 -0.055000 0.001397
v 0.068400 -0.055000 0.001298
v 0.069600 -0.055000 0.001212
v 0.070800 -0.055000 0.001138
v 0.072000 -0.055000 0.001078
v 0.073200 -0.055000 0.001032
v 0.074400 -0.055000 0.001005
v 0.075600 -0.055000 0.001000
v 0.076800 -0.055000 0.001000
v 0.078000 -0.055000 0.001000
v 0.079200 -0.055000 0.001000
v 0.080400 -0.055000 0.001000
v 0.081600 -0.055000 0.001000
v 0.082800 -0.055000 0.001000
v 0.084000 -0.055000 0.001000
v 0.085200 -0.055000 0.001000
v 0.086400 -0.055000 0.001000
v 0.087600 -0.055000 0.001000
v 0.088800 -0.055000 0.001000
v 0.090000 -0.055000 0.001000
v 0.092000 -0.055000 0.000000
v -0.092000 0.055000 0.000000
v -0.090000 0.055000 0.001000
v -0.088800 0.055000 0.001000
v -0.087600 0.055000 0.001000
v -0.086400 0.055000 0.001000
v -0.085200 0.055000 0.001000
v -0.084000 0.055000 0.001000
v -0.082800 0.055000 0.001000
v -0.081600 0.055000 0.001000
v -0.080400 0.055000 0.001000
v -0.079200 0.055000 0.001000
v -0.078000 0.055000 0.001000
v -0.076800 0.055000 0.001000
v -0.075600 0.055000 0.001000
v -0.074400 0.055000 0.001005
v -0.073200 0.055000 0.001032
v -0.072000 0.055000 0.001078
v -0.070800 0.055000 0.001138
v -0.069600 0.055000 0.001212
v -0.068400 0.055000 0.001298
v -0.067200 0.055000 0.001397
v -0.066000 0.055000 0.001507
v -0.064800 0.055000 0.001628
v -0.063600 0.055000 0.001759
v -0.062400 0.055000 0.001901
v -0.061200 0.055000 0.002053
v -0.060000 0.055000 0.002214
v -0.058800 0.055000 0.002385
v -0.057600 0.055000 0.002564
v -0.056400 0.055000 0.002753
v -0.055200 0.055000 0.002951
v -0.054000 0.055000 0.003157
v -0.052800 0.055000 0.003372
v -0.051600 0.055000 0.003596
v -0.050400 0.055000 0.003827
v -0.049200 0.055000 0.004067
v -0.048000 0.055000 0.004315
v -0.046800 0.055000 0.004571
v -0.045600 0.055000 0.004834
v -0.044400 0.055000 0.005106
v -0.043200 0.055000 0.005385
v -0.042000 0.055000 0.005671
v -0.040800 0.055000 0.005965
v -0.039600 0.055000 0.006266
v -0.038400 0.055000 0.006575
v -0.037200 0.055000 0.006891
v -0.036000 0.055000 0.007214
v -0.034800 0.055000 0.007545
v -0.033600 0.055000 0.007882
v -0.032400 0.055000 0.008227
v -0.031200 0.055000 0.008578
v -0.030000 0.055000 0.008936
v -0.028800 0.055000 0.009301
v -0.027600 0.055000 0.009673
v -0.026400 0.055000 0.010052
v -0.025200 0.055000 0.010437
v -0.024000 0.055000 0.010829
v -0.022800 0.055000 0.011228
v -0.021600 0.055000 0.011633
v -0.020400 0.055000 0.012044
v -0.019200 0.055000 0.012462
v -0.018000 0.055000 0.012887
v -0.016800 0.055000 0.013318
v -0.015600 0.055000 0.013755
v -0.014400 0.055000 0.014198
v -0.013200 0.055000 0.014648
v -0.012000 0.055000 0.015104
v -0.010800 0.055000 0.015566
v -0.009600 0.055000 0.016035
v -0.008400 0.055000 0.016509
v -0.007200 0.055000 0.016990
v -0.006000 0.055000 0.017477
v -0.004800 0.055000 0.017969
v -0.003600 0.055000 0.018468
v -0.002400 0.055000 0.018973
v -0.001200 0.055000 0.019483
v 0.000000 0.055000 0.020000
v 0.001200 0.055000 0.019483
v 0.002400 0.055000 0.018973
v 0.003600 0.055000 0.018468
v 0.004800 0.055000 0.017969
v 0.006000 0.055000 0.017477
v 0.007200 0.055000 0.016990
v 0.008400 0.055000 0.016509
v 0.009600 0.055000 0.016035
v 0.010800 0.055000 0.015566
v 0.012000 0.055000 0.015104
v 0.013200 0.055000 0.014648
v 0.014400 0.055000 0.014198
v 0.015600 0.055000 0.013755
v 0.016800 0.055000 0.013318
v 0.018000 0.055000 0.012887
v 0.019200 0.055000 0.012462
v 0.020400 0.055000 0.012044
v 0.021600 0.055000 0.011633
v 0.022800 0.055000 0.011228
v 0.024000 0.055000 0.010829
v 0.025200 0.055000 0.010437
v 0.026400 0.055000 0.010052
v 0.027600 0.055000 0.009673
v 0.028800 0.055000 0.009301
v 0.030000 0.055000 0.008936
v 0.031200 0.055000 0.008578
v 0.032400 0.055000 0.008227
v 0.033600 0.055000 0.007882
v 0.034800 0.055000 0.007545
v 0.036000 0.055000 0.007214
v 0.037200 0.055000 0.006891
v 0.038400 0.055000 0.006575
v 0.039600 0.055000 0.006266
v 0.040800 0.055000 0.005965
v 0.042000 0.055000 0.005671
v 0.043200 0.055000 0.005385
v 0.044400 0.055000 0.005106
v 0.045600 0.055000 0.004834
v 0.046800 0.055000 0.004571
v 0.048000 0.055000 0.004315
v 0.049200 0.055000 0.004067
v 0.050400 0.055000 0.003827
v 0.051600 0.055000 0.003596
v 0.052800 0.055000 0.003372
v 0.054000 0.055000 0.003157
v 0.055200 0.055000 0.002951
v 0.056400 0.055000 0.002753
v 0.057600 0.055000 0.002564
v 0.058800 0.055000 0.002385
v 0.060000 0.055000 0.002214
v 0.061200 0.055000 0.002053
v 0.062400 0.055000 0.001901
v 0.063600 0.055000 0.001759
v 0.064800 0.055000 0.001628
v 0.066000 0.055000 0.001507
v 0.067200 0.055000 0.001397
v 0.068400 0.055000 0.001298
v 0.069600 0.055000 0.001212
v 0.070800 0.055000 0.001138
v 0.072000 0.055000 0.001078
v 0.073200 0.055000 0.001032
v 0.074400 0.055000 0.001005
v 0.075600 0.055000 0.001000
v 0.076800 0.055000 0.001000
v 0.078000 0.055000 0.001000
v 0.079200 0.055000 0.001000
v 0.080400 0.055000 0.001000
v 0.081600 0.055000 0.001000
v 0.082800 0.055000 0.001000
v 0.084000 0.055000 0.001000
v 0.085200 0.055000 0.001000
v 0.086400 0.055000 0.001000
v 0.087600 0.055000 0.001000
v 0.088800 0.055000 0.001000
v 0.090000 0.055000 0.001000
v 0.092000 0.055000 0.000000
f 1 2 155 154
f 2 3 156 155
f 3 4 157 156
f 4 5 158 157
f 5 6 159 158
f 6 7 160 159
f 7 8 161 160
f 8 9 162 161
f 9 10 163 162
f 10 11 164 163
f 11 12 165 164
f 12 13 166 165
f 13 14 167 166
f 14 15 168 167
f 15 16 169 168
f 16 17 170 169
f 17 18 171 170
f 18 19 172 171
f 19 20 173 172
f 20 21 174 173
f 21 22 175 174
f 22 23 176 175
f 23 24 177 176
f 24 25 178 177
f 25 26 179 178
f 26 27 180 179
f 27 28 181 180
f 28 29 182 181
f 29 30 183 182
f 30 31 184 183
f 31 32 185 184
f 32 33 186 185
f 33 34 187 186
f 34 35 188 187
f 35 36 189 188
f 36 37 190 189
f 37 38 191 190
f 38 39 192 191
f 39 40 193 192
f 40 41 194 193
f 41 42 195 194
f 42 43 196 195
f 43 44 197 196
f 44 45 198 197
f 45 46 199 198
f 46 47 200 199
f 47 48 201 200
f 48 49 202 201
f 49 50 203 202
f 50 51 204 203
f 51 52 205 204
f 52 53 206 205
f 53 54 207 206
f 54 55 208 207
f 55 56 209 208
f 56 57 210 209
f 57 58 211 210
f 58 59 212 211
f 59 60 213 212
f 60 61 214 213
f 61 62 215 214
f 62 63 216 215
f 63 64 217 216
f 64 65 218 217
f 65 66 219 218
f 66 67 220 219
f 67 68 221 220
f 68 69 222 221
f 69 70 223 222
f 70 71 224 223
f 71 72 225 224
f 72 73 226 225
f 73 74 227 226
f 74 75 228 227
f 75 76 229 228
f 76 77 230 229
f 77 78 231 230
f 78 79 232 231
f 79 80 233 232
f 80 81 234 233
f 81 82 235 234
f 82 83 236 235
f 83 84 237 236
f 84 85 238 237
f 85 86 239 238
f 86 87 240 239
f 87 88 241 240
f 88 89 242 241
f 89 90 243 242
f 90 91 244 243
f 91 92 245 244
f 92 93 246 245
f 93 94 247 246
f 94 95 248 247
f 95 96 249 248
f 96 97 250 249
f 97 98 251 250
f 98 99 252 251
f 99 100 253 252
f 100 101 254 253
f 101 102 255 254
f 102 103 256 255
f 103 104 257 256
f 104 105 258 257
f 105 106 259 258
f 106 107 260 259
f 107 108 261 260
f 108 109 262 261
f 109 110 263 262
f 110 111 264 263
f 111 112 265 264
f 112 113 266 265
f 113 114 267 266
f 114 115 268 267
f 115 116 269 268
f 116 117 270 269
f 117 118 271 270
f 118 119 272 271
f 119 120 273 272
f 120 121 274 273
f 121 122 275 274
f 122 123 276 275
f 123 124 277 276
f 124 125 278 277
f 125 126 279 278
f 126 127 280 279
f 127 128 281 280
f 128 129 282 281
f 129 130 283 282
f 130 131 284 283
f 131 132 285 284
f 132 133 286 285
f 133 134 287 286
f 134 135 288 287
f 135 136 289 288
f 136 137 290 289
f 137 138 291 290
f 138 139 292 291
f 139 140 293 292
f 140 141 294 293
f 141 142 295 294
f 142 143 296 295
f 143 144 297 296
f 144 145 298 297
f 145 146 299 298
f 146 147 300 299
f 147 148 301 300
f 148 149 302 301
f 149 150 303 302
f 150 151 304 303
f 151 152 305 304
f 152 153 306 305
