v -0.08500 -0.05500 0.000000
v -0.08300 -0.05500 0.000432
v -0.08100 -0.05500 0.001012
v -0.07900 -0.05500 0.001655
v -0.07700 -0.05500 0.002335
v -0.07500 -0.05500 0.003038
v -0.07300 -0.05500 0.003756
v -0.07100 -0.05500 0.004483
v -0.06900 -0.05500 0.005212
v -0.06700 -0.05500 0.005941
v -0.06500 -0.05500 0.006666
v -0.06300 -0.05500 0.007385
v -0.06100 -0.05500 0.008094
v -0.05900 -0.05500 0.008793
v -0.05700 -0.05500 0.009480
v -0.05500 -0.05500 0.010152
v -0.05300 -0.05500 0.010809
v -0.05100 -0.05500 0.011449
v -0.04900 -0.05500 0.012071
v -0.04700 -0.05500 0.012674
v -0.04500 -0.05500 0.013258
v -0.04300 -0.05500 0.013822
v -0.04100 -0.05500 0.014364
v -0.03900 -0.05500 0.014884
v -0.03700 -0.05500 0.015381
v -0.03500 -0.05500 0.015855
v -0.03300 -0.05500 0.016306
v -0.03100 -0.05500 0.016732
v -0.02900 -0.05500 0.017134
v -0.02700 -0.05500 0.017510
v -0.02500 -0.05500 0.017861
v -0.02300 -0.05500 0.018187
v -0.02100 -0.05500 0.018486
v -0.01900 -0.05500 0.018759
v -0.01700 -0.05500 0.019005
v -0.01500 -0.05500 0.019225
v -0.01300 -0.05500 0.019417
v -0.01100 -0.05500 0.019582
v -0.00900 -0.05500 0.019720
v -0.00700 -0.05500 0.019831
v -0.00500 -0.05500 0.019914
v -0.00300 -0.05500 0.019969
v -0.00100 -0.05500 0.019997
v 0.00100 -0.05500 0.019997
v 0.00300 -0.05500 0.019969
v 0.00500 -0.05500 0.019914
v 0.00700 -0.05500 0.019831
v 0.00900 -0.05500 0.019720
v 0.01100 -0.05500 0.019582
v 0.01300 -0.05500 0.019417
v 0.01500 -0.05500 0.019225
v 0.01700 -0.05500 0.019005
v 0.01900 -0.05500 0.018759
v 0.02100 -0.05500 0.018486
v 0.02300 -0.05500 0.018187
v 0.02500 -0.05500 0.017861
v 0.02700 -0.05500 0.017510
v 0.02900 -0.05500 0.017134
v 0.03100 -0.05500 0.016732
v 0.03300 -0.05500 0.016306
v 0.03500 -0.05500 0.015855
v 0.03700 -0.05500 0.015381
v 0.03900 -0.05500 0.014884
v 0.04100 -0.05500 0.014364
v 0.04300 -0.05500 0.013822
v 0.04500 -0.05500 0.013258
v 0.04700 -0.05500 0.012674
v 0.04900 -0.05500 0.012071
v 0.05100 -0.05500 0.011449
v 0.05300 -0.05500 0.010809
v 0.05500 -0.05500 0.010152
v 0.05700 -0.05500 0.009480
v 0.05900 -0.05500 0.008793
v 0.06100 -0.05500 0.008094
v 0.06300 -0.05500 0.007385
v 0.06500 -0.05500 0.006666
v 0.06700 -0.05500 0.005941
v 0.06900 -0.05500 0.005212
v 0.07100 -0.05500 0.004483
v 0.07300 -0.05500 0.003756
v 0.07500 -0.05500 0.003038
v 0.07700 -0.05500 0.002335
v 0.07900 -0.05500 0.001655
v 0.08100 -0.05500 0.001012
v 0.08300 -0.05500 0.000432
v 0.08500 -0.05500 0.000000
v -0.08500 -0.03500 0.000000
v -0.08300 -0.03500 0.000432
v -0.08100 -0.03500 0.001012
v -0.07900 -0.03500 0.001655
v -0.07700 -0.03500 0.002335
v -0.07500 -0.03500 0.003038
v -0.07300 -0.03500 0.003756
v -0.07100 -0.03500 0.004483
v -0.06900 -0.03500 0.005212
v -0.06700 -0.03500 0.005941
v -0.06500 -0.03500 0.006666
v -0.06300 -0.03500 0.007385
v -0.06100 -0.03500 0.008094
v -0.05900 -0.03500 0.008793
v -0.05700 -0.03500 0.009480
v -0.05500 -0.03500 0.010152
v -0.05300 -0.03500 0.010809
v -0.05100 -0.03500 0.011449
v -0.04900 -0.03500 0.012071
v -0.04700 -0.03500 0.012674
v -0.04500 -0.03500 0.013258
v -0.04300 -0.03500 0.013822
v -0.04100 -0.03500 0.014364
v -0.03900 -0.03500 0.014884
v -0.03700 -0.03500 0.015381
v -0.03500 -0.03500 0.015855
v -0.03300 -0.03500 0.016306
v -0.03100 -0.03500 0.016732
v -0.02900 -0.03500 0.017134
v -0.02700 -0.03500 0.017510
v -0.02500 -0.03500 0.017861
v -0.02300 -0.03500 0.018187
v -0.02100 -0.03500 0.018486
v -0.01900 -0.03500 0.018759
v -0.01700 -0.03500 0.019005
v -0.01500 -0.03500 0.019225
v -0.01300 -0.03500 0.019417
v -0.01100 -0.03500 0.019582
v -0.00900 -0.03500 0.019720
v -0.00700 -0.03500 0.019831
v -0.00500 -0.03500 0.019914
v -0.00300 -0.03500 0.019969
v -0.00100 -0.03500 0.019997
v 0.00100 -0.03500 0.019997
v 0.00300 -0.03500 0.019969
v 0.00500 -0.03500 0.019914
v 0.00700 -0.03500 0.019831
v 0.00900 -0.03500 0.019720
v 0.01100 -0.03500 0.019582
v 0.01300 -0.03500 0.019417
v 0.01500 -0.03500 0.019225
v 0.01700 -0.03500 0.019005
v 0.01900 -0.03500 0.018759
v 0.02100 -0.03500 0.018486
v 0.02300 -0.03500 0.018187
v 0.02500 -0.03500 0.017861
v 0.02700 -0.03500 0.017510
v 0.02900 -0.03500 0.017134
v 0.03100 -0.03500 0.016732
v 0.03300 -0.03500 0.016306
v 0.03500 -0.03500 0.015855
v 0.03700 -0.03500 0.015381
v 0.03900 -0.03500 0.014884
v 0.04100 -0.03500 0.014364
v 0.04300 -0.03500 0.013822
v 0.04500 -0.03500 0.013258
v 0.04700 -0.03500 0.012674
v 0.04900 -0.03500 0.012071
v 0.05100 -0.03500 0.011449
v 0.05300 -0.03500 0.010809
v 0.05500 -0.03500 0.010152
v 0.05700 -0.03500 0.009480
v 0.05900 -0.03500 0.008793
v 0.06100 -0.03500 0.008094
v 0.06300 -0.03500 0.007385
v 0.06500 -0.03500 0.006666
v 0.06700 -0.03500 0.005941
v 0.06900 -0.03500 0.005212
v 0.07100 -0.03500 0.004483
v 0.07300 -0.03500 0.003756
v 0.07500 -0.03500 0.003038
v 0.07700 -0.03500 0.002335
v 0.07900 -0.03500 0.001655
v 0.08100 -0.03500 0.001012
v 0.08300 -0.03500 0.000432
v 0.08500 -0.03500 0.000000
v -0.08500 -0.01500 0.000000
v -0.08300 -0.01500 0.000432
v -0.08100 -0.01500 0.001012
v -0.07900 -0.01500 0.001655
v -0.07700 -0.01500 0.002335
v -0.07500 -0.01500 0.003038
v -0.07300 -0.01500 0.003756
v -0.07100 -0.01500 0.004483
v -0.06900 -0.01500 0.005212
v -0.06700 -0.01500 0.005941
v -0.06500 -0.01500 0.006666
v -0.06300 -0.01500 0.007385
v -0.06100 -0.01500 0.008094
v -0.05900 -0.01500 0.008793
v -0.05700 -0.01500 0.009480
v -0.05500 -0.01500 0.010152
v -0.05300 -0.01500 0.010809
v -0.05100 -0.01500 0.011449
v -0.04900 -0.01500 0.012071
v -0.04700 -0.01500 0.012674
v -0.04500 -0.01500 0.013258
v -0.04300 -0.01500 0.013822
v -0.04100 -0.01500 0.014364
v -0.03900 -0.01500 0.014884
v -0.03700 -0.01500 0.015381
v -0.03500 -0.01500 0.015855
v -0.03300 -0.01500 0.016306
v -0.03100 -0.01500 0.016732
v -0.02900 -0.01500 0.017134
v -0.02700 -0.01500 0.017510
v -0.02500 -0.01500 0.017861
v -0.02300 -0.01500 0.018187
v -0.02100 -0.01500 0.018486
v -0.01900 -0.01500 0.018759
v -0.01700 -0.01500 0.019005
v -0.01500 -0.01500 0.019225
v -0.01300 -0.01500 0.019417
v -0.01100 -0.01500 0.019582
v -0.00900 -0.01500 0.019720
v -0.00700 -0.01500 0.019831
v -0.00500 -0.01500 0.019914
v -0.00300 -0.01500 0.019969
v -0.00100 -0.01500 0.019997
v 0.00100 -0.01500 0.019997
v 0.00300 -0.01500 0.019969
v 0.00500 -0.01500 0.019914
v 0.00700 -0.01500 0.019831
v 0.00900 -0.01500 0.019720
v 0.01100 -0.01500 0.019582
v 0.01300 -0.01500 0.019417
v 0.01500 -0.01500 0.019225
v 0.01700 -0.01500 0.019005
v 0.01900 -0.01500 0.018759
v 0.02100 -0.01500 0.018486
v 0.02300 -0.01500 0.018187
v 0.02500 -0.01500 0.017861
v 0.02700 -0.01500 0.017510
v 0.02900 -0.01500 0.017134
v 0.03100 -0.01500 0.016732
v 0.03300 -0.01500 0.016306
v 0.03500 -0.01500 0.015855
v 0.03700 -0.01500 0.015381
v 0.03900 -0.01500 0.014884
v 0.04100 -0.01500 0.014364
v 0.04300 -0.01500 0.013822
v 0.04500 -0.01500 0.013258
v 0.04700 -0.01500 0.012674
v 0.04900 -0.01500 0.012071
v 0.05100 -0.01500 0.011449
v 0.05300 -0.01500 0.010809
v 0.05500 -0.01500 0.010152
v 0.05700 -0.01500 0.009480
v 0.05900 -0.01500 0.008793
v 0.06100 -0.01500 0.008094
v 0.06300 -0.01500 0.007385
v 0.06500 -0.01500 0.006666
v 0.06700 -0.01500 0.005941
v 0.06900 -0.01500 0.005212
v 0.07100 -0.01500 0.004483
v 0.07300 -0.01500 0.003756
v 0.07500 -0.01500 0.003038
v 0.07700 -0.01500 0.002335
v 0.07900 -0.01500 0.001655
v 0.08100 -0.01500 0.001012
v 0.08300 -0.01500 0.000432
v 0.08500 -0.01500 0.000000
v -0.08500 0.00500 0.000000
v -0.08300 0.00500 0.000432
v -0.08100 0.00500 0.001012
v -0.07900 0.00500 0.001655
v -0.07700 0.00500 0.002335
v -0.07500 0.00500 0.003038
v -0.07300 0.00500 0.003756
v -0.07100 0.00500 0.004483
v -0.06900 0.00500 0.005212
v -0.06700 0.00500 0.005941
v -0.06500 0.00500 0.006666
v -0.06300 0.00500 0.007385
v -0.06100 0.00500 0.008094
v -0.05900 0.00500 0.008793
v -0.05700 0.00500 0.009480
v -0.05500 0.00500 0.010152
v -0.05300 0.00500 0.010809
v -0.05100 0.00500 0.011449
v -0.04900 0.00500 0.012071
v -0.04700 0.00500 0.012674
v -0.04500 0.00500 0.013258
v -0.04300 0.00500 0.013822
v -0.04100 0.00500 0.014364
v -0.03900 0.00500 0.014884
v -0.03700 0.00500 0.015381
v -0.03500 0.00500 0.015855
v -0.03300 0.00500 0.016306
v -0.03100 0.00500 0.016732
v -0.02900 0.00500 0.017134
v -0.02700 0.00500 0.017510
v -0.02500 0.00500 0.017861
v -0.02300 0.00500 0.018187
v -0.02100 0.00500 0.018486
v -0.01900 0.00500 0.018759
v -0.01700 0.00500 0.019005
v -0.01500 0.00500 0.019225
v -0.01300 0.00500 0.019417
v -0.01100 0.00500 0.019582
v -0.00900 0.00500 0.019720
v -0.00700 0.00500 0.019831
v -0.00500 0.00500 0.019914
v -0.00300 0.00500 0.019969
v -0.00100 0.00500 0.019997
v 0.00100 0.00500 0.019997
v 0.00300 0.00500 0.019969
v 0.00500 0.00500 0.019914
v 0.00700 0.00500 0.019831
v 0.00900 0.00500 0.019720
v 0.01100 0.00500 0.019582
v 0.01300 0.00500 0.019417
v 0.01500 0.00500 0.019225
v 0.01700 0.00500 0.019005
v 0.01900 0.00500 0.018759
v 0.02100 0.00500 0.018486
v 0.02300 0.00500 0.018187
v 0.02500 0.00500 0.017861
v 0.02700 0.00500 0.017510
v 0.02900 0.00500 0.017134
v 0.03100 0.00500 0.016732
v 0.03300 0.00500 0.016306
v 0.03500 0.00500 0.015855
v 0.03700 0.00500 0.015381
v 0.03900 0.00500 0.014884
v 0.04100 0.00500 0.014364
v 0.04300 0.00500 0.013822
v 0.04500 0.00500 0.013258
v 0.04700 0.00500 0.012674
v 0.04900 0.00500 0.012071
v 0.05100 0.00500 0.011449
v 0.05300 0.00500 0.010809
v 0.05500 0.00500 0.010152
v 0.05700 0.00500 0.009480
v 0.05900 0.00500 0.008793
v 0.06100 0.00500 0.008094
v 0.06300 0.00500 0.007385
v 0.06500 0.00500 0.006666
v 0.06700 0.00500 0.005941
v 0.06900 0.00500 0.005212
v 0.07100 0.00500 0.004483
v 0.07300 0.00500 0.003756
v 0.07500 0.00500 0.003038
v 0.07700 0.00500 0.002335
v 0.07900 0.00500 0.001655
v 0.08100 0.00500 0.001012
v 0.08300 0.00500 0.000432
v 0.08500 0.00500 0.000000
v -0.08500 0.02500 0.000000
v -0.08300 0.02500 0.000432
v -0.08100 0.02500 0.001012
v -0.07900 0.02500 0.001655
v -0.07700 0.02500 0.002335
v -0.07500 0.02500 0.003038
v -0.07300 0.02500 0.003756
v -0.07100 0.02500 0.004483
v -0.06900 0.02500 0.005212
v -0.06700 0.02500 0.005941
v -0.06500 0.02500 0.006666
v -0.06300 0.02500 0.007385
v -0.06100 0.02500 0.008094
v -0.05900 0.02500 0.008793
v -0.05700 0.02500 0.009480
v -0.05500 0.02500 0.010152
v -0.05300 0.02500 0.010809
v -0.05100 0.02500 0.011449
v -0.04900 0.02500 0.012071
v -0.04700 0.02500 0.012674
v -0.04500 0.02500 0.013258
v -0.04300 0.02500 0.013822
v -0.04100 0.02500 0.014364
v -0.03900 0.02500 0.014884
v -0.03700 0.02500 0.015381
v -0.03500 0.02500 0.015855
v -0.03300 0.02500 0.016306
v -0.03100 0.02500 0.016732
v -0.02900 0.02500 0.017134
v -0.02700 0.02500 0.017510
v -0.02500 0.02500 0.017861
v -0.02300 0.02500 0.018187
v -0.02100 0.02500 0.018486
v -0.01900 0.02500 0.018759
v -0.01700 0.02500 0.019005
v -0.01500 0.02500 0.019225
v -0.01300 0.02500 0.019417
v -0.01100 0.02500 0.019582
v -0.00900 0.02500 0.019720
v -0.00700 0.02500 0.019831
v -0.00500 0.02500 0.019914
v -0.00300 0.02500 0.019969
v -0.00100 0.02500 0.019997
v 0.00100 0.02500 0.019997
v 0.00300 0.02500 0.019969
v 0.00500 0.02500 0.019914
v 0.00700 0.02500 0.019831
v 0.00900 0.02500 0.019720
v 0.01100 0.02500 0.019582
v 0.01300 0.02500 0.019417
v 0.01500 0.02500 0.019225
v 0.01700 0.02500 0.019005
v 0.01900 0.02500 0.018759
v 0.02100 0.02500 0.018486
v 0.02300 0.02500 0.018187
v 0.02500 0.02500 0.017861
v 0.02700 0.02500 0.017510
v 0.02900 0.02500 0.017134
v 0.03100 0.02500 0.016732
v 0.03300 0.02500 0.016306
v 0.03500 0.02500 0.015855
v 0.03700 0.02500 0.015381
v 0.03900 0.02500 0.014884
v 0.04100 0.02500 0.014364
v 0.04300 0.02500 0.013822
v 0.04500 0.02500 0.013258
v 0.04700 0.02500 0.012674
v 0.04900 0.02500 0.012071
v 0.05100 0.02500 0.011449
v 0.05300 0.02500 0.010809
v 0.05500 0.02500 0.010152
v 0.05700 0.02500 0.009480
v 0.05900 0.02500 0.008793
v 0.06100 0.02500 0.008094
v 0.06300 0.02500 0.007385
v 0.06500 0.02500 0.006666
v 0.06700 0.02500 0.005941
v 0.06900 0.02500 0.005212
v 0.07100 0.02500 0.004483
v 0.07300 0.02500 0.003756
v 0.07500 0.02500 0.003038
v 0.07700 0.02500 0.002335
v 0.07900 0.02500 0.001655
v 0.08100 0.02500 0.001012
v 0.08300 0.02500 0.000432
v 0.08500 0.02500 0.000000
v -0.08500 0.04500 0.000000
v -0.08300 0.04500 0.000432
v -0.08100 0.04500 0.001012
v -0.07900 0.04500 0.001655
v -0.07700 0.04500 0.002335
v -0.07500 0.04500 0.003038
v -0.07300 0.04500 0.003756
v -0.07100 0.04500 0.004483
v -0.06900 0.04500 0.005212
v -0.06700 0.04500 0.005941
v -0.06500 0.04500 0.006666
v -0.06300 0.04500 0.007385
v -0.06100 0.04500 0.008094
v -0.05900 0.04500 0.008793
v -0.05700 0.04500 0.009480
v -0.05500 0.04500 0.010152
v -0.05300 0.04500 0.010809
v -0.05100 0.04500 0.011449
v -0.04900 0.04500 0.012071
v -0.04700 0.04500 0.012674
v -0.04500 0.04500 0.013258
v -0.04300 0.04500 0.013822
v -0.04100 0.04500 0.014364
v -0.03900 0.04500 0.014884
v -0.03700 0.04500 0.015381
v -0.03500 0.04500 0.015855
v -0.03300 0.04500 0.016306
v -0.03100 0.04500 0.016732
v -0.02900 0.04500 0.017134
v -0.02700 0.04500 0.017510
v -0.02500 0.04500 0.017861
v -0.02300 0.04500 0.018187
v -0.02100 0.04500 0.018486
v -0.01900 0.04500 0.018759
v -0.01700 0.04500 0.019005
v -0.01500 0.04500 0.019225
v -0.01300 0.04500 0.019417
v -0.01100 0.04500 0.019582
v -0.00900 0.04500 0.019720
v -0.00700 0.04500 0.019831
v -0.00500 0.04500 0.019914
v -0.00300 0.04500 0.019969
v -0.00100 0.04500 0.019997
v 0.00100 0.04500 0.019997
v 0.00300 0.04500 0.019969
v 0.00500 0.04500 0.019914
v 0.00700 0.04500 0.019831
v 0.00900 0.04500 0.019720
v 0.01100 0.04500 0.019582
v 0.01300 0.04500 0.019417
v 0.01500 0.04500 0.019225
v 0.01700 0.04500 0.019005
v 0.01900 0.04500 0.018759
v 0.02100 0.04500 0.018486
v 0.02300 0.04500 0.018187
v 0.02500 0.04500 0.017861
v 0.02700 0.04500 0.017510
v 0.02900 0.04500 0.017134
v 0.03100 0.04500 0.016732
v 0.03300 0.04500 0.016306
v 0.03500 0.04500 0.015855
v 0.03700 0.04500 0.015381
v 0.03900 0.04500 0.014884
v 0.04100 0.04500 0.014364
v 0.04300 0.04500 0.013822
v 0.04500 0.04500 0.013258
v 0.04700 0.04500 0.012674
v 0.04900 0.04500 0.012071
v 0.05100 0.04500 0.011449
v 0.05300 0.04500 0.010809
v 0.05500 0.04500 0.010152
v 0.05700 0.04500 0.009480
v 0.05900 0.04500 0.008793
v 0.06100 0.04500 0.008094
v 0.06300 0.04500 0.007385
v 0.06500 0.04500 0.006666
v 0.06700 0.04500 0.005941
v 0.06900 0.04500 0.005212
v 0.07100 0.04500 0.004483
v 0.07300 0.04500 0.003756
v 0.07500 0.04500 0.003038
v 0.07700 0.04500 0.002335
v 0.07900 0.04500 0.001655
v 0.08100 0.04500 0.001012
v 0.08300 0.04500 0.000432
v 0.08500 0.04500 0.000000
v -0.08500 -0.05500 -0.010000
v 0.08500 -0.05500 -0.010000
v -0.08500 -0.03500 -0.010000
v 0.08500 -0.03500 -0.010000
v -0.08500 -0.01500 -0.010000
v 0.08500 -0.01500 -0.010000
v -0.08500 0.00500 -0.010000
v 0.08500 0.00500 -0.010000
v -0.08500 0.02500 -0.010000
v 0.08500 0.02500 -0.010000
v -0.08500 0.04500 -0.010000
v 0.08500 0.04500 -0.010000
f 1 87 88
f 1 88 2
f 2 88 89
f 2 89 3
f 3 89 90
f 3 90 4
f 4 90 91
f 4 91 5
f 5 91 92
f 5 92 6
f 6 92 93
f 6 93 7
f 7 93 94
f 7 94 8
f 8 94 95
f 8 95 9
f 9 95 96
f 9 96 10
f 10 96 97
f 10 97 11
f 11 97 98
f 11 98 12
f 12 98 99
f 12 99 13
f 13 99 100
f 13 100 14
f 14 100 101
f 14 101 15
f 15 101 102
f 15 102 16
f 16 102 103
f 16 103 17
f 17 103 104
f 17 104 18
f 18 104 105
f 18 105 19
f 19 105 106
f 19 106 20
f 20 106 107
f 20 107 21
f 21 107 108
f 21 108 22
f 22 108 109
f 22 109 23
f 23 109 110
f 23 110 24
f 24 110 111
f 24 111 25
f 25 111 112
f 25 112 26
f 26 112 113
f 26 113 27
f 27 113 114
f 27 114 28
f 28 114 115
f 28 115 29
f 29 115 116
f 29 116 30
f 30 116 117
f 30 117 31
f 31 117 118
f 31 118 32
f 32 118 119
f 32 119 33
f 33 119 120
f 33 120 34
f 34 120 121
f 34 121 35
f 35 121 122
f 35 122 36
f 36 122 123
f 36 123 37
f 37 123 124
f 37 124 38
f 38 124 125
f 38 125 39
f 39 125 126
f 39 126 40
f 40 126 127
f 40 127 41
f 41 127 128
f 41 128 42
f 42 128 129
f 42 129 43
f 43 129 130
f 43 130 44
f 44 130 131
f 44 131 45
f 45 131 132
f 45 132 46
f 46 132 133
f 46 133 47
f 47 133 134
f 47 134 48
f 48 134 135
f 48 135 49
f 49 135 136
f 49 136 50
f 50 136 137
f 50 137 51
f 51 137 138
f 51 138 52
f 52 138 139
f 52 139 53
f 53 139 140
f 53 140 54
f 54 140 141
f 54 141 55
f 55 141 142
f 55 142 56
f 56 142 143
f 56 143 57
f 57 143 144
f 57 144 58
f 58 144 145
f 58 145 59
f 59 145 146
f 59 146 60
f 60 146 147
f 60 147 61
f 61 147 148
f 61 148 62
f 62 148 149
f 62 149 63
f 63 149 150
f 63 150 64
f 64 150 151
f 64 151 65
f 65 151 152
f 65 152 66
f 66 152 153
f 66 153 67
f 67 153 154
f 67 154 68
f 68 154 155
f 68 155 69
f 69 155 156
f 69 156 70
f 70 156 157
f 70 157 71
f 71 157 158
f 71 158 72
f 72 158 159
f 72 159 73
f 73 159 160
f 73 160 74
f 74 160 161
f 74 161 75
f 75 161 162
f 75 162 76
f 76 162 163
f 76 163 77
f 77 163 164
f 77 164 78
f 78 164 165
f 78 165 79
f 79 165 166
f 79 166 80
f 80 166 167
f 80 167 81
f 81 167 168
f 81 168 82
f 82 168 169
f 82 169 83
f 83 169 170
f 83 170 84
f 84 170 171
f 84 171 85
f 85 171 172
f 85 172 86
f 87 173 174
f 87 174 88
f 88 174 175
f 88 175 89
f 89 175 176
f 89 176 90
f 90 176 177
f 90 177 91
f 91 177 178
f 91 178 92
f 92 178 179
f 92 179 93
f 93 179 180
f 93 180 94
f 94 180 181
f 94 181 95
f 95 181 182
f 95 182 96
f 96 182 183
f 96 183 97
f 97 183 184
f 97 184 98
f 98 184 185
f 98 185 99
f 99 185 186
f 99 186 100
f 100 186 187
f 100 187 101
f 101 187 188
f 101 188 102
f 102 188 189
f 102 189 103
f 103 189 190
f 103 190 104
f 104 190 191
f 104 191 105
f 105 191 192
f 105 192 106
f 106 192 193
f 106 193 107
f 107 193 194
f 107 194 108
f 108 194 195
f 108 195 109
f 109 195 196
f 109 196 110
f 110 196 197
f 110 197 111
f 111 197 198
f 111 198 112
f 112 198 199
f 112 199 113
f 113 199 200
f 113 200 114
f 114 200 201
f 114 201 115
f 115 201 202
f 115 202 116
f 116 202 203
f 116 203 117
f 117 203 204
f 117 204 118
f 118 204 205
f 118 205 119
f 119 205 206
f 119 206 120
f 120 206 207
f 120 207 121
f 121 207 208
f 121 208 122
f 122 208 209
f 122 209 123
f 123 209 210
f 123 210 124
f 124 210 211
f 124 211 125
f 125 211 212
f 125 212 126
f 126 212 213
f 126 213 127
f 127 213 214
f 127 214 128
f 128 214 215
f 128 215 129
f 129 215 216
f 129 216 130
f 130 216 217
f 130 217 131
f 131 217 218
f 131 218 132
f 132 218 219
f 132 219 133
f 133 219 220
f 133 220 134
f 134 220 221
f 134 221 135
f 135 221 222
f 135 222 136
f 136 222 223
f 136 223 137
f 137 223 224
f 137 224 138
f 138 224 225
f 138 225 139
f 139 225 226
f 139 226 140
f 140 226 227
f 140 227 141
f 141 227 228
f 141 228 142
f 142 228 229
f 142 229 143
f 143 229 230
f 143 230 144
f 144 230 231
f 144 231 145
f 145 231 232
f 145 232 146
f 146 232 233
f 146 233 147
f 147 233 234
f 147 234 148
f 148 234 235
f 148 235 149
f 149 235 236
f 149 236 150
f 150 236 237
f 150 237 151
f 151 237 238
f 151 238 152
f 152 238 239
f 152 239 153
f 153 239 240
f 153 240 154
f 154 240 241
f 154 241 155
f 155 241 242
f 155 242 156
f 156 242 243
f 156 243 157
f 157 243 244
f 157 244 158
f 158 244 245
f 158 245 159
f 159 245 246
f 159 246 160
f 160 246 247
f 160 247 161
f 161 247 248
f 161 248 162
f 162 248 249
f 162 249 163
f 163 249 250
f 163 250 164
f 164 250 251
f 164 251 165
f 165 251 252
f 165 252 166
f 166 252 253
f 166 253 167
f 167 253 254
f 167 254 168
f 168 254 255
f 168 255 169
f 169 255 256
f 169 256 170
f 170 256 257
f 170 257 171
f 171 257 258
f 171 258 172
f 173 259 260
f 173 260 174
f 174 260 261
f 174 261 175
f 175 261 262
f 175 262 176
f 176 262 263
f 176 263 177
f 177 263 264
f 177 264 178
f 178 264 265
f 178 265 179
f 179 265 266
f 179 266 180
f 180 266 267
f 180 267 181
f 181 267 268
f 181 268 182
f 182 268 269
f 182 269 183
f 183 269 270
f 183 270 184
f 184 270 271
f 184 271 185
f 185 271 272
f 185 272 186
f 186 272 273
f 186 273 187
f 187 273 274
f 187 274 188
f 188 274 275
f 188 275 189
f 189 275 276
f 189 276 190
f 190 276 277
f 190 277 191
f 191 277 278
f 191 278 192
f 192 278 279
f 192 279 193
f 193 279 280
f 193 280 194
f 194 280 281
f 194 281 195
f 195 281 282
f 195 282 196
f 196 282 283
f 196 283 197
f 197 283 284
f 197 284 198
f 198 284 285
f 198 285 199
f 199 285 286
f 199 286 200
f 200 286 287
f 200 287 201
f 201 287 288
f 201 288 202
f 202 288 289
f 202 289 203
f 203 289 290
f 203 290 204
f 204 290 291
f 204 291 205
f 205 291 292
f 205 292 206
f 206 292 293
f 206 293 207
f 207 293 294
f 207 294 208
f 208 294 295
f 208 295 209
f 209 295 296
f 209 296 210
f 210 296 297
f 210 297 211
f 211 297 298
f 211 298 212
f 212 298 299
f 212 299 213
f 213 299 300
f 213 300 214
f 214 300 301
f 214 301 215
f 215 301 302
f 215 302 216
f 216 302 303
f 216 303 217
f 217 303 304
f 217 304 218
f 218 304 305
f 218 305 219
f 219 305 306
f 219 306 220
f 220 306 307
f 220 307 221
f 221 307 308
f 221 308 222
f 222 308 309
f 222 309 223
f 223 309 310
f 223 310 224
f 224 310 311
f 224 311 225
f 225 311 312
f 225 312 226
f 226 312 313
f 226 313 227
f 227 313 314
f 227 314 228
f 228 314 315
f 228 315 229
f 229 315 316
f 229 316 230
f 230 316 317
f 230 317 231
f 231 317 318
f 231 318 232
f 232 318 319
f 232 319 233
f 233 319 320
f 233 320 234
f 234 320 321
f 234 321 235
f 235 321 322
f 235 322 236
f 236 322 323
f 236 323 237
f 237 323 324
f 237 324 238
f 238 324 325
f 238 325 239
f 239 325 326
f 239 326 240
f 240 326 327
f 240 327 241
f 241 327 328
f 241 328 242
f 242 328 329
f 242 329 243
f 243 329 330
f 243 330 244
f 244 330 331
f 244 331 245
f 245 331 332
f 245 332 246
f 246 332 333
f 246 333 247
f 247 333 334
f 247 334 248
f 248 334 335
f 248 335 249
f 249 335 336
f 249 336 250
f 250 336 337
f 250 337 251
f 251 337 338
f 251 338 252
f 252 338 339
f 252 339 253
f 253 339 340
f 253 340 254
f 254 340 341
f 254 341 255
f 255 341 342
f 255 342 256
f 256 342 343
f 256 343 257
f 257 343 344
f 257 344 258
f 259 345 346
f 259 346 260
f 260 346 347
f 260 347 261
f 261 347 348
f 261 348 262
f 262 348 349
f 262 349 263
f 263 349 350
f 263 350 264
f 264 350 351
f 264 351 265
f 265 351 352
f 265 352 266
f 266 352 353
f 266 353 267
f 267 353 354
f 267 354 268
f 268 354 355
f 268 355 269
f 269 355 356
f 269 356 270
f 270 356 357
f 270 357 271
f 271 357 358
f 271 358 272
f 272 358 359
f 272 359 273
f 273 359 360
f 273 360 274
f 274 360 361
f 274 361 275
f 275 361 362
f 275 362 276
f 276 362 363
f 276 363 277
f 277 363 364
f 277 364 278
f 278 364 365
f 278 365 279
f 279 365 366
f 279 366 280
f 280 366 367
f 280 367 281
f 281 367 368
f 281 368 282
f 282 368 369
f 282 369 283
f 283 369 370
f 283 370 284
f 284 370 371
f 284 371 285
f 285 371 372
f 285 372 286
f 286 372 373
f 286 373 287
f 287 373 374
f 287 374 288
f 288 374 375
f 288 375 289
f 289 375 376
f 289 376 290
f 290 376 377
f 290 377 291
f 291 377 378
f 291 378 292
f 292 378 379
f 292 379 293
f 293 379 380
f 293 380 294
f 294 380 381
f 294 381 295
f 295 381 382
f 295 382 296
f 296 382 383
f 296 383 297
f 297 383 384
f 297 384 298
f 298 384 385
f 298 385 299
f 299 385 386
f 299 386 300
f 300 386 387
f 300 387 301
f 301 387 388
f 301 388 302
f 302 388 389
f 302 389 303
f 303 389 390
f 303 390 304
f 304 390 391
f 304 391 305
f 305 391 392
f 305 392 306
f 306 392 393
f 306 393 307
f 307 393 394
f 307 394 308
f 308 394 395
f 308 395 309
f 309 395 396
f 309 396 310
f 310 396 397
f 310 397 311
f 311 397 398
f 311 398 312
f 312 398 399
f 312 399 313
f 313 399 400
f 313 400 314
f 314 400 401
f 314 401 315
f 315 401 402
f 315 402 316
f 316 402 403
f 316 403 317
f 317 403 404
f 317 404 318
f 318 404 405
f 318 405 319
f 319 405 406
f 319 406 320
f 320 406 407
f 320 407 321
f 321 407 408
f 321 408 322
f 322 408 409
f 322 409 323
f 323 409 410
f 323 410 324
f 324 410 411
f 324 411 325
f 325 411 412
f 325 412 326
f 326 412 413
f 326 413 327
f 327 413 414
f 327 414 328
f 328 414 415
f 328 415 329
f 329 415 416
f 329 416 330
f 330 416 417
f 330 417 331
f 331 417 418
f 331 418 332
f 332 418 419
f 332 419 333
f 333 419 420
f 333 420 334
f 334 420 421
f 334 421 335
f 335 421 422
f 335 422 336
f 336 422 423
f 336 423 337
f 337 423 424
f 337 424 338
f 338 424 425
f 338 425 339
f 339 425 426
f 339 426 340
f 340 426 427
f 340 427 341
f 341 427 428
f 341 428 342
f 342 428 429
f 342 429 343
f 343 429 430
f 343 430 344
f 345 431 432
f 345 432 346
f 346 432 433
f 346 433 347
f 347 433 434
f 347 434 348
f 348 434 435
f 348 435 349
f 349 435 436
f 349 436 350
f 350 436 437
f 350 437 351
f 351 437 438
f 351 438 352
f 352 438 439
f 352 439 353
f 353 439 440
f 353 440 354
f 354 440 441
f 354 441 355
f 355 441 442
f 355 442 356
f 356 442 443
f 356 443 357
f 357 443 444
f 357 444 358
f 358 444 445
f 358 445 359
f 359 445 446
f 359 446 360
f 360 446 447
f 360 447 361
f 361 447 448
f 361 448 362
f 362 448 449
f 362 449 363
f 363 449 450
f 363 450 364
f 364 450 451
f 364 451 365
f 365 451 452
f 365 452 366
f 366 452 453
f 366 453 367
f 367 453 454
f 367 454 368
f 368 454 455
f 368 455 369
f 369 455 456
f 369 456 370
f 370 456 457
f 370 457 371
f 371 457 458
f 371 458 372
f 372 458 459
f 372 459 373
f 373 459 460
f 373 460 374
f 374 460 461
f 374 461 375
f 375 461 462
f 375 462 376
f 376 462 463
f 376 463 377
f 377 463 464
f 377 464 378
f 378 464 465
f 378 465 379
f 379 465 466
f 379 466 380
f 380 466 467
f 380 467 381
f 381 467 468
f 381 468 382
f 382 468 469
f 382 469 383
f 383 469 470
f 383 470 384
f 384 470 471
f 384 471 385
f 385 471 472
f 385 472 386
f 386 472 473
f 386 473 387
f 387 473 474
f 387 474 388
f 388 474 475
f 388 475 389
f 389 475 476
f 389 476 390
f 390 476 477
f 390 477 391
f 391 477 478
f 391 478 392
f 392 478 479
f 392 479 393
f 393 479 480
f 393 480 394
f 394 480 481
f 394 481 395
f 395 481 482
f 395 482 396
f 396 482 483
f 396 483 397
f 397 483 484
f 397 484 398
f 398 484 485
f 398 485 399
f 399 485 486
f 399 486 400
f 400 486 487
f 400 487 401
f 401 487 488
f 401 488 402
f 402 488 489
f 402 489 403
f 403 489 490
f 403 490 404
f 404 490 491
f 404 491 405
f 405 491 492
f 405 492 406
f 406 492 493
f 406 493 407
f 407 493 494
f 407 494 408
f 408 494 495
f 408 495 409
f 409 495 496
f 409 496 410
f 410 496 497
f 410 497 411
f 411 497 498
f 411 498 412
f 412 498 499
f 412 499 413
f 413 499 500
f 413 500 414
f 414 500 501
f 414 501 415
f 415 501 502
f 415 502 416
f 416 502 503
f 416 503 417
f 417 503 504
f 417 504 418
f 418 504 505
f 418 505 419
f 419 505 506
f 419 506 420
f 420 506 507
f 420 507 421
f 421 507 508
f 421 508 422
f 422 508 509
f 422 509 423
f 423 509 510
f 423 510 424
f 424 510 511
f 424 511 425
f 425 511 512
f 425 512 426
f 426 512 513
f 426 513 427
f 427 513 514
f 427 514 428
f 428 514 515
f 428 515 429
f 429 515 516
f 429 516 430
