v 0.00000 -0.05500 0.000000
v 0.00150 -0.05500 0.000038
v 0.00300 -0.05500 0.000150
v 0.00450 -0.05500 0.000339
v 0.00600 -0.05500 0.000606
v 0.00750 -0.05500 0.000953
v 0.00900 -0.05500 0.001382
v 0.01050 -0.05500 0.001896
v 0.01200 -0.05500 0.002442
v 0.01350 -0.05500 0.002988
v 0.01500 -0.05500 0.003534
v 0.01650 -0.05500 0.004080
v 0.01800 -0.05500 0.004626
v 0.01950 -0.05500 0.005172
v 0.02100 -0.05500 0.005718
v 0.02250 -0.05500 0.006264
v 0.02400 -0.05500 0.006810
v 0.02550 -0.05500 0.007356
v 0.02700 -0.05500 0.007902
v 0.02850 -0.05500 0.008448
v 0.03000 -0.05500 0.008994
v 0.03150 -0.05500 0.009540
v 0.03300 -0.05500 0.010086
v 0.03450 -0.05500 0.010632
v 0.03600 -0.05500 0.011178
v 0.03750 -0.05500 0.011724
v 0.03900 -0.05500 0.012270
v 0.04050 -0.05500 0.012815
v 0.04200 -0.05500 0.013361
v 0.04350 -0.05500 0.013907
v 0.04500 -0.05500 0.014453
v 0.04650 -0.05500 0.014999
v 0.04800 -0.05500 0.015545
v 0.04950 -0.05500 0.016091
v 0.05100 -0.05500 0.016637
v 0.05250 -0.05500 0.017183
v 0.05400 -0.05500 0.017729
v 0.00000 -0.05500 -0.015000
v 0.05500 -0.05500 -0.015000
v 0.00000 -0.03500 0.000000
v 0.00150 -0.03500 0.000038
v 0.00300 -0.03500 0.000150
v 0.00450 -0.03500 0.000339
v 0.00600 -0.03500 0.000606
v 0.00750 -0.03500 0.000953
v 0.00900 -0.03500 0.001382
v 0.01050 -0.03500 0.001896
v 0.01200 -0.03500 0.002442
v 0.01350 -0.03500 0.002988
v 0.01500 -0.03500 0.003534
v 0.01650 -0.03500 0.004080
v 0.01800 -0.03500 0.004626
v 0.01950 -0.03500 0.005172
v 0.02100 -0.03500 0.005718
v 0.02250 -0.03500 0.006264
v 0.02400 -0.03500 0.006810
v 0.02550 -0.03500 0.007356
v 0.02700 -0.03500 0.007902
v 0.02850 -0.03500 0.008448
v 0.03000 -0.03500 0.008994
v 0.03150 -0.03500 0.009540
v 0.03300 -0.03500 0.010086
v 0.03450 -0.03500 0.010632
v 0.03600 -0.03500 0.011178
v 0.03750 -0.03500 0.011724
v 0.03900 -0.03500 0.012270
v 0.04050 -0.03500 0.012815
v 0.04200 -0.03500 0.013361
v 0.04350 -0.03500 0.013907
v 0.04500 -0.03500 0.014453
v 0.04650 -0.03500 0.014999
v 0.04800 -0.03500 0.015545
v 0.04950 -0.03500 0.016091
v 0.05100 -0.03500 0.016637
v 0.05250 -0.03500 0.017183
v 0.05400 -0.03500 0.017729
v 0.00000 -0.03500 -0.015000
v 0.05500 -0.03500 -0.015000
v 0.00000 -0.01500 0.000000
v 0.00150 -0.01500 0.000038
v 0.00300 -0.01500 0.000150
v 0.00450 -0.01500 0.000339
v 0.00600 -0.01500 0.000606
v 0.00750 -0.01500 0.000953
v 0.00900 -0.01500 0.001382
v 0.01050 -0.01500 0.001896
v 0.01200 -0.01500 0.002442
v 0.01350 -0.01500 0.002988
v 0.01500 -0.01500 0.003534
v 0.01650 -0.01500 0.004080
v 0.01800 -0.01500 0.004626
v 0.01950 -0.01500 0.005172
v 0.02100 -0.01500 0.005718
v 0.02250 -0.01500 0.006264
v 0.02400 -0.01500 0.006810
v 0.02550 -0.01500 0.007356
v 0.02700 -0.01500 0.007902
v 0.02850 -0.01500 0.008448
v 0.03000 -0.01500 0.008994
v 0.03150 -0.01500 0.009540
v 0.03300 -0.01500 0.010086
v 0.03450 -0.01500 0.010632
v 0.03600 -0.01500 0.011178
v 0.03750 -0.01500 0.011724
v 0.03900 -0.01500 0.012270
v 0.04050 -0.01500 0.012815
v 0.04200 -0.01500 0.013361
v 0.04350 -0.01500 0.013907
v 0.04500 -0.01500 0.014453
v 0.04650 -0.01500 0.014999
v 0.04800 -0.01500 0.015545
v 0.04950 -0.01500 0.016091
v 0.05100 -0.01500 0.016637
v 0.05250 -0.01500 0.017183
v 0.05400 -0.01500 0.017729
v 0.00000 -0.01500 -0.015000
v 0.05500 -0.01500 -0.015000
v 0.00000 0.00500 0.000000
v 0.00150 0.00500 0.000038
v 0.00300 0.00500 0.000150
v 0.00450 0.00500 0.000339
v 0.00600 0.00500 0.000606
v 0.00750 0.00500 0.000953
v 0.00900 0.00500 0.001382
v 0.01050 0.00500 0.001896
v 0.01200 0.00500 0.002442
v 0.01350 0.00500 0.002988
v 0.01500 0.00500 0.003534
v 0.01650 0.00500 0.004080
v 0.01800 0.00500 0.004626
v 0.01950 0.00500 0.005172
v 0.02100 0.00500 0.005718
v 0.02250 0.00500 0.006264
v 0.02400 0.00500 0.006810
v 0.02550 0.00500 0.007356
v 0.02700 0.00500 0.007902
v 0.02850 0.00500 0.008448
v 0.03000 0.00500 0.008994
v 0.03150 0.00500 0.009540
v 0.03300 0.00500 0.010086
v 0.03450 0.00500 0.010632
v 0.03600 0.00500 0.011178
v 0.03750 0.00500 0.011724
v 0.03900 0.00500 0.012270
v 0.04050 0.00500 0.012815
v 0.04200 0.00500 0.013361
v 0.04350 0.00500 0.013907
v 0.04500 0.00500 0.014453
v 0.04650 0.00500 0.014999
v 0.04800 0.00500 0.015545
v 0.04950 0.00500 0.016091
v 0.05100 0.00500 0.016637
v 0.05250 0.00500 0.017183
v 0.05400 0.00500 0.017729
v 0.00000 0.00500 -0.015000
v 0.05500 0.00500 -0.015000
v 0.00000 0.02500 0.000000
v 0.00150 0.02500 0.000038
v 0.00300 0.02500 0.000150
v 0.00450 0.02500 0.000339
v 0.00600 0.02500 0.000606
v 0.00750 0.02500 0.000953
v 0.00900 0.02500 0.001382
v 0.01050 0.02500 0.001896
v 0.01200 0.02500 0.002442
v 0.01350 0.02500 0.002988
v 0.01500 0.02500 0.003534
v 0.01650 0.02500 0.004080
v 0.01800 0.02500 0.004626
v 0.01950 0.02500 0.005172
v 0.02100 0.02500 0.005718
v 0.02250 0.02500 0.006264
v 0.02400 0.02500 0.006810
v 0.02550 0.02500 0.007356
v 0.02700 0.02500 0.007902
v 0.02850 0.02500 0.008448
v 0.03000 0.02500 0.008994
v 0.03150 0.02500 0.009540
v 0.03300 0.02500 0.010086
v 0.03450 0.02500 0.010632
v 0.03600 0.02500 0.011178
v 0.03750 0.02500 0.011724
v 0.03900 0.02500 0.012270
v 0.04050 0.02500 0.012815
v 0.04200 0.02500 0.013361
v 0.04350 0.02500 0.013907
v 0.04500 0.02500 0.014453
v 0.04650 0.02500 0.014999
v 0.04800 0.02500 0.015545
v 0.04950 0.02500 0.016091
v 0.05100 0.02500 0.016637
v 0.05250 0.02500 0.017183
v 0.05400 0.02500 0.017729
v 0.00000 0.02500 -0.015000
v 0.05500 0.02500 -0.015000
v 0.00000 0.04500 0.000000
v 0.00150 0.04500 0.000038
v 0.00300 0.04500 0.000150
v 0.00450 0.04500 0.000339
v 0.00600 0.04500 0.000606
v 0.00750 0.04500 0.000953
v 0.00900 0.04500 0.001382
v 0.01050 0.04500 0.001896
v 0.01200 0.04500 0.002442
v 0.01350 0.04500 0.002988
v 0.01500 0.04500 0.003534
v 0.01650 0.04500 0.004080
v 0.01800 0.04500 0.004626
v 0.01950 0.04500 0.005172
v 0.02100 0.04500 0.005718
v 0.02250 0.04500 0.006264
v 0.02400 0.04500 0.006810
v 0.02550 0.04500 0.007356
v 0.02700 0.04500 0.007902
v 0.02850 0.04500 0.008448
v 0.03000 0.04500 0.008994
v 0.03150 0.04500 0.009540
v 0.03300 0.04500 0.010086
v 0.03450 0.04500 0.010632
v 0.03600 0.04500 0.011178
v 0.03750 0.04500 0.011724
v 0.03900 0.04500 0.012270
v 0.04050 0.04500 0.012815
v 0.04200 0.04500 0.013361
v 0.04350 0.04500 0.013907
v 0.04500 0.04500 0.014453
v 0.04650 0.04500 0.014999
v 0.04800 0.04500 0.015545
v 0.04950 0.04500 0.016091
v 0.05100 0.04500 0.016637
v 0.05250 0.04500 0.017183
v 0.05400 0.04500 0.017729
v 0.00000 0.04500 -0.015000
v 0.05500 0.04500 -0.015000
f 1 40 41
f 1 41 2
f 2 41 42
f 2 42 3
f 3 42 43
f 3 43 4
f 4 43 44
f 4 44 5
f 5 44 45
f 5 45 6
f 6 45 46
f 6 46 7
f 7 46 47
f 7 47 8
f 8 47 48
f 8 48 9
f 9 48 49
f 9 49 10
f 10 49 50
f 10 50 11
f 11 50 51
f 11 51 12
f 12 51 52
f 12 52 13
f 13 52 53
f 13 53 14
f 14 53 54
f 14 54 15
f 15 54 55
f 15 55 16
f 16 55 56
f 16 56 17
f 17 56 57
f 17 57 18
f 18 57 58
f 18 58 19
f 19 58 59
f 19 59 20
f 20 59 60
f 20 60 21
f 21 60 61
f 21 61 22
f 22 61 62
f 22 62 23
f 23 62 63
f 23 63 24
f 24 63 64
f 24 64 25
f 25 64 65
f 25 65 26
f 26 65 66
f 26 66 27
f 27 66 67
f 27 67 28
f 28 67 68
f 28 68 29
f 29 68 69
f 29 69 30
f 30 69 70
f 30 70 31
f 31 70 71
f 31 71 32
f 32 71 72
f 32 72 33
f 33 72 73
f 33 73 34
f 34 73 74
f 34 74 35
f 35 74 75
f 35 75 36
f 36 75 76
f 36 76 37
f 40 79 80
f 40 80 41
f 41 80 81
f 41 81 42
f 42 81 82
f 42 82 43
f 43 82 83
f 43 83 44
f 44 83 84
f 44 84 45
f 45 84 85
f 45 85 46
f 46 85 86
f 46 86 47
f 47 86 87
f 47 87 48
f 48 87 88
f 48 88 49
f 49 88 89
f 49 89 50
f 50 89 90
f 50 90 51
f 51 90 91
f 51 91 52
f 52 91 92
f 52 92 53
f 53 92 93
f 53 93 54
f 54 93 94
f 54 94 55
f 55 94 95
f 55 95 56
f 56 95 96
f 56 96 57
f 57 96 97
f 57 97 58
f 58 97 98
f 58 98 59
f 59 98 99
f 59 99 60
f 60 99 100
f 60 100 61
f 61 100 101
f 61 101 62
f 62 101 102
f 62 102 63
f 63 102 103
f 63 103 64
f 64 103 104
f 64 104 65
f 65 104 105
f 65 105 66
f 66 105 106
f 66 106 67
f 67 106 107
f 67 107 68
f 68 107 108
f 68 108 69
f 69 108 109
f 69 109 70
f 70 109 110
f 70 110 71
f 71 110 111
f 71 111 72
f 72 111 112
f 72 112 73
f 73 112 113
f 73 113 74
f 74 113 114
f 74 114 75
f 75 114 115
f 75 115 76
f 79 118 119
f 79 119 80
f 80 119 120
f 80 120 81
f 81 120 121
f 81 121 82
f 82 121 122
f 82 122 83
f 83 122 123
f 83 123 84
f 84 123 124
f 84 124 85
f 85 124 125
f 85 125 86
f 86 125 126
f 86 126 87
f 87 126 127
f 87 127 88
f 88 127 128
f 88 128 89
f 89 128 129
f 89 129 90
f 90 129 130
f 90 130 91
f 91 130 131
f 91 131 92
f 92 131 132
f 92 132 93
f 93 132 133
f 93 133 94
f 94 133 134
f 94 134 95
f 95 134 135
f 95 135 96
f 96 135 136
f 96 136 97
f 97 136 137
f 97 137 98
f 98 137 138
f 98 138 99
f 99 138 139
f 99 139 100
f 100 139 140
f 100 140 101
f 101 140 141
f 101 141 102
f 102 141 142
f 102 142 103
f 103 142 143
f 103 143 104
f 104 143 144
f 104 144 105
f 105 144 145
f 105 145 106
f 106 145 146
f 106 146 107
f 107 146 147
f 107 147 108
f 108 147 148
f 108 148 109
f 109 148 149
f 109 149 110
f 110 149 150
f 110 150 111
f 111 150 151
f 111 151 112
f 112 151 152
f 112 152 113
f 113 152 153
f 113 153 114
f 114 153 154
f 114 154 115
f 118 157 158
f 118 158 119
f 119 158 159
f 119 159 120
f 120 159 160
f 120 160 121
f 121 160 161
f 121 161 122
f 122 161 162
f 122 162 123
f 123 162 163
f 123 163 124
f 124 163 164
f 124 164 125
f 125 164 165
f 125 165 126
f 126 165 166
f 126 166 127
f 127 166 167
f 127 167 128
f 128 167 168
f 128 168 129
f 129 168 169
f 129 169 130
f 130 169 170
f 130 170 131
f 131 170 171
f 131 171 132
f 132 171 172
f 132 172 133
f 133 172 173
f 133 173 134
f 134 173 174
f 134 174 135
f 135 174 175
f 135 175 136
f 136 175 176
f 136 176 137
f 137 176 177
f 137 177 138
f 138 177 178
f 138 178 139
f 139 178 179
f 139 179 140
f 140 179 180
f 140 180 141
f 141 180 181
f 141 181 142
f 142 181 182
f 142 182 143
f 143 182 183
f 143 183 144
f 144 183 184
f 144 184 145
f 145 184 185
f 145 185 146
f 146 185 186
f 146 186 147
f 147 186 187
f 147 187 148
f 148 187 188
f 148 188 149
f 149 188 189
f 149 189 150
f 150 189 190
f 150 190 151
f 151 190 191
f 151 191 152
f 152 191 192
f 152 192 153
f 153 192 193
f 153 193 154
f 157 196 197
f 157 197 158
f 158 197 198
f 158 198 159
f 159 198 199
f 159 199 160
f 160 199 200
f 160 200 161
f 161 200 201
f 161 201 162
f 162 201 202
f 162 202 163
f 163 202 203
f 163 203 164
f 164 203 204
f 164 204 165
f 165 204 205
f 165 205 166
f 166 205 206
f 166 206 167
f 167 206 207
f 167 207 168
f 168 207 208
f 168 208 169
f 169 208 209
f 169 209 170
f 170 209 210
f 170 210 171
f 171 210 211
f 171 211 172
f 172 211 212
f 172 212 173
f 173 212 213
f 173 213 174
f 174 213 214
f 174 214 175
f 175 214 215
f 175 215 176
f 176 215 216
f 176 216 177
f 177 216 217
f 177 217 178
f 178 217 218
f 178 218 179
f 179 218 219
f 179 219 180
f 180 219 220
f 180 220 181
f 181 220 221
f 181 221 182
f 182 221 222
f 182 222 183
f 183 222 223
f 183 223 184
f 184 223 224
f 184 224 185
f 185 224 225
f 185 225 186
f 186 225 226
f 186 226 187
f 187 226 227
f 187 227 188
f 188 227 228
f 188 228 189
f 189 228 229
f 189 229 190
f 190 229 230
f 190 230 191
f 191 230 231
f 191 231 192
f 192 231 232
f 192 232 193
